<svg width="28" height="28" viewBox="0 0 28 28" fill="none" xmlns="http://www.w3.org/2000/svg">
<path d="M27.174 13.412L14.574 0.812C14.07 0.308 13.37 0 12.6 0H2.8C1.26 0 0 1.26 0 2.8V12.6C0 13.37 0.308 14.07 0.826 14.588L13.426 27.188C13.93 27.692 14.63 28 15.4 28C16.17 28 16.87 27.692 17.374 27.174L27.174 17.374C27.692 16.87 28 16.17 28 15.4C28 14.63 27.678 13.916 27.174 13.412ZM15.4 25.214L2.8 12.6V2.8H12.6V2.786L25.2 15.386L15.4 25.214Z" fill="black"/>
<path d="M6.3 8.4C7.4598 8.4 8.4 7.4598 8.4 6.3C8.4 5.1402 7.4598 4.2 6.3 4.2C5.1402 4.2 4.2 5.1402 4.2 6.3C4.2 7.4598 5.1402 8.4 6.3 8.4Z" fill="black"/>
</svg>
