<svg width="28" height="28" viewBox="0 0 28 28" fill="none" xmlns="http://www.w3.org/2000/svg">
<path d="M27.01 9.59138C28.6848 7.91665 27.9211 5.96057 27.01 5.00932L22.9904 0.989971C21.3022 -0.684758 19.3594 0.078918 18.4081 0.989971L16.1304 3.281H12.6601C10.1144 3.281 8.64059 4.62078 7.89027 6.16153L1.94132 12.1102V17.4693L0.990023 18.4072C-0.684794 20.0953 0.0789223 22.038 0.990023 22.9892L5.00958 27.0086C5.7331 27.732 6.51022 28 7.24714 28C8.19843 28 9.06934 27.5311 9.59188 27.0086L13.2095 23.3777H18.0196C20.2973 23.3777 21.4496 21.9576 21.8649 20.5642C23.379 20.1623 24.2097 19.0101 24.5446 17.8846C26.6214 17.3487 27.3985 15.3792 27.3985 13.9993V9.97992H26.608L27.01 9.59138ZM24.7188 13.9993C24.7188 14.6022 24.4643 15.339 23.379 15.339H22.0391V16.6788C22.0391 17.2817 21.7845 18.0186 20.6993 18.0186H19.3594V19.3584C19.3594 19.9613 19.1048 20.6982 18.0196 20.6982H12.1108L7.71609 25.0927C7.30073 25.4812 7.05956 25.2534 6.91218 25.1061L2.90601 21.1135C2.51746 20.6982 2.74523 20.457 2.89261 20.3096L4.62103 18.5679V13.2088L7.30073 10.5292V12.6595C7.30073 14.2806 8.37262 16.6788 11.3203 16.6788C14.268 16.6788 15.3399 14.2806 15.3399 12.6595H24.7188V13.9993ZM25.1074 7.68889L22.8296 9.97992H12.6601V12.6595C12.6601 13.2624 12.4056 13.9993 11.3203 13.9993C10.235 13.9993 9.98044 13.2624 9.98044 12.6595V8.64013C9.98044 8.02383 10.2082 5.96057 12.6601 5.96057H17.229L20.2839 2.90586C20.6993 2.51732 20.9404 2.74509 21.0878 2.89246L25.094 6.88502C25.4825 7.30035 25.2548 7.54151 25.1074 7.68889Z" fill="#111111"/>
</svg>
