<svg width="28" height="28" viewBox="0 0 28 28" fill="none" xmlns="http://www.w3.org/2000/svg">
<path d="M7.48585 7.25872V6.53492C7.48585 2.93875 10.3868 0 14 0C17.6132 0 20.5141 2.93875 20.5141 6.53492V7.2608H24.9611C25.2301 7.26105 25.4894 7.35665 25.6888 7.52907C25.8881 7.70149 26.0134 7.93846 26.0403 8.19406L27.9946 26.8593C28.0097 27.0035 27.9931 27.149 27.9458 27.2866C27.8985 27.4242 27.8215 27.5508 27.7198 27.6583C27.6182 27.7657 27.4941 27.8517 27.3555 27.9105C27.2169 27.9694 27.067 27.9999 26.9154 28H1.08462C0.932979 27.9999 0.783051 27.9694 0.644495 27.9105C0.50594 27.8517 0.38183 27.7657 0.280162 27.6583C0.178493 27.5508 0.101522 27.4242 0.0542055 27.2866C0.00688933 27.149 -0.00972195 27.0035 0.00544222 26.8593L1.95969 8.19406C1.98658 7.93846 2.11186 7.70149 2.31123 7.52907C2.51061 7.35665 2.7699 7.26105 3.03886 7.2608H7.48585V7.25872ZM9.65724 7.25872H18.3428V6.53492C18.3428 4.05866 16.3842 2.07392 14 2.07392C11.6158 2.07392 9.65724 4.05866 9.65724 6.53492V7.2608V7.25872ZM7.48585 9.33264H4.0225L2.28539 25.924H25.7146L23.9753 9.33264H20.5141V12.4435C20.5141 12.7185 20.3998 12.9823 20.1962 13.1768C19.9925 13.3712 19.7164 13.4805 19.4285 13.4805C19.1405 13.4805 18.8644 13.3712 18.6608 13.1768C18.4571 12.9823 18.3428 12.7185 18.3428 12.4435V9.33264H9.65724V12.4435C9.65724 12.7185 9.54285 12.9823 9.33924 13.1768C9.13564 13.3712 8.85949 13.4805 8.57155 13.4805C8.2836 13.4805 8.00745 13.3712 7.80385 13.1768C7.60024 12.9823 7.48585 12.7185 7.48585 12.4435V9.33264Z" fill="#111111"/>
</svg>
