<svg width="28" height="28" viewBox="0 0 28 28" fill="none" xmlns="http://www.w3.org/2000/svg">
<path fill-rule="evenodd" clip-rule="evenodd" d="M23.3333 1.55556C23.3333 1.143 23.1694 0.747335 22.8777 0.455612C22.586 0.163888 22.1903 0 21.7778 0C21.3652 0 20.9696 0.163888 20.6778 0.455612C20.3861 0.747335 20.2222 1.143 20.2222 1.55556V3.11111H1.55556C1.143 3.11111 0.747335 3.275 0.455612 3.56672C0.163888 3.85845 0 4.25411 0 4.66667C0 5.07923 0.163888 5.47489 0.455612 5.76661C0.747335 6.05833 1.143 6.22222 1.55556 6.22222H20.2222V7.77778C20.2222 8.19034 20.3861 8.586 20.6778 8.87772C20.9696 9.16945 21.3652 9.33333 21.7778 9.33333C22.1903 9.33333 22.586 9.16945 22.8777 8.87772C23.1694 8.586 23.3333 8.19034 23.3333 7.77778V6.22222H26.4444C26.857 6.22222 27.2527 6.05833 27.5444 5.76661C27.8361 5.47489 28 5.07923 28 4.66667C28 4.25411 27.8361 3.85845 27.5444 3.56672C27.2527 3.275 26.857 3.11111 26.4444 3.11111H23.3333V1.55556ZM1.55556 12.4444C1.143 12.4444 0.747335 12.6083 0.455612 12.9001C0.163888 13.1918 0 13.5874 0 14C0 14.4126 0.163888 14.8082 0.455612 15.0999C0.747335 15.3917 1.143 15.5556 1.55556 15.5556H4.66667V17.1111C4.66667 17.5237 4.83056 17.9193 5.12228 18.2111C5.414 18.5028 5.80966 18.6667 6.22222 18.6667C6.63478 18.6667 7.03044 18.5028 7.32217 18.2111C7.61389 17.9193 7.77778 17.5237 7.77778 17.1111V15.5556H26.4444C26.857 15.5556 27.2527 15.3917 27.5444 15.0999C27.8361 14.8082 28 14.4126 28 14C28 13.5874 27.8361 13.1918 27.5444 12.9001C27.2527 12.6083 26.857 12.4444 26.4444 12.4444H7.77778V10.8889C7.77778 10.4763 7.61389 10.0807 7.32217 9.78895C7.03044 9.49722 6.63478 9.33333 6.22222 9.33333C5.80966 9.33333 5.414 9.49722 5.12228 9.78895C4.83056 10.0807 4.66667 10.4763 4.66667 10.8889V12.4444H1.55556ZM0 23.3333C0 22.9208 0.163888 22.5251 0.455612 22.2334C0.747335 21.9417 1.143 21.7778 1.55556 21.7778H20.2222V20.2222C20.2222 19.8097 20.3861 19.414 20.6778 19.1223C20.9696 18.8306 21.3652 18.6667 21.7778 18.6667C22.1903 18.6667 22.586 18.8306 22.8777 19.1223C23.1694 19.414 23.3333 19.8097 23.3333 20.2222V21.7778H26.4444C26.857 21.7778 27.2527 21.9417 27.5444 22.2334C27.8361 22.5251 28 22.9208 28 23.3333C28 23.7459 27.8361 24.1416 27.5444 24.4333C27.2527 24.725 26.857 24.8889 26.4444 24.8889H23.3333V26.4444C23.3333 26.857 23.1694 27.2527 22.8777 27.5444C22.586 27.8361 22.1903 28 21.7778 28C21.3652 28 20.9696 27.8361 20.6778 27.5444C20.3861 27.2527 20.2222 26.857 20.2222 26.4444V24.8889H1.55556C1.143 24.8889 0.747335 24.725 0.455612 24.4333C0.163888 24.1416 0 23.7459 0 23.3333Z" fill="#111111"/>
</svg>
